<?xml version="1.0" encoding="UTF-8"?>
<svg id="Layer_1" data-name="Layer 1" xmlns="http://www.w3.org/2000/svg" viewBox="0 0 1077.75 519.72">
  <defs>
    <style>
      .cls-1 {
        fill: #15243d;
        stroke-width: 0px;
      }
    </style>
  </defs>
  <path class="cls-1" d="m238.68,339.88c-1.49.08-2.99.12-4.5.12-2.3,0-4.59-.09-6.84-.28,0,.09,0,.18,0,.28,0,21.87-17.73,39.59-39.6,39.59s-39.6-17.73-39.6-39.59c0-14.35,7.63-26.91,19.06-33.86-10.17-13.79-16.18-30.84-16.18-49.29v-.2c-.77.24-1.58.38-2.43.38-4.42,0-8.01-3.58-8.01-8.01s3.59-8.01,8.01-8.01c1.36,0,2.64.34,3.76.94,7.02-38.81,40.98-68.24,81.82-68.24,15.37,0,29.76,4.17,42.11,11.43,1.89-9.11,6.69-17.15,13.38-23.12-4.42-1.42-7.61-5.56-7.61-10.45,0-6.06,4.91-10.98,10.98-10.98s10.98,4.91,10.98,10.98c0,.71-.07,1.4-.19,2.07,4.45-1.58,9.24-2.43,14.23-2.43,19.86,0,36.56,13.58,41.3,31.96,7.82-4.75,17-7.48,26.82-7.48,28.58,0,51.74,23.16,51.74,51.74s-23.17,51.74-51.74,51.74c-26.65,0-48.6-20.15-51.44-46.04-5.13,2.18-10.77,3.39-16.69,3.39-1.1,0-2.18-.04-3.26-.12,1.66,6.54,2.54,13.4,2.54,20.46,0,18.85-6.27,36.24-16.85,50.18,10.49,7.12,17.39,19.15,17.39,32.78,0,21.87-17.73,39.59-39.6,39.59s-39.56-17.69-39.6-39.53"/>
  <path class="cls-1" d="m468.79,310.85v-140.59h15.06v55.84c3.61-4.82,8.03-8.9,13.26-12.25,5.22-3.35,11.91-5.02,20.08-5.02,6.96,0,13.49,1.64,19.58,4.92,6.09,3.28,11.05,8.17,14.86,14.66,3.81,6.5,5.72,14.5,5.72,24v58.45h-15.06v-58.04c0-9.1-2.61-16.44-7.83-22-5.22-5.55-11.98-8.33-20.29-8.33-5.62,0-10.71,1.27-15.26,3.82-4.55,2.54-8.2,6.13-10.95,10.74-2.75,4.62-4.12,9.94-4.12,15.97v57.84h-15.06Z"/>
  <path class="cls-1" d="m577.64,210.43h15.06v100.42h-15.06v-100.42Zm-.6-36.55h16.27v19.68h-16.27v-19.68Z"/>
  <path class="cls-1" d="m663,298.8c7.5,0,13.89-1.74,19.18-5.22,5.29-3.48,9.34-8.13,12.15-13.96,2.81-5.83,4.22-12.15,4.22-18.98s-1.4-13.32-4.22-19.08c-2.81-5.75-6.86-10.37-12.15-13.86-5.29-3.48-11.68-5.22-19.18-5.22s-13.66,1.74-18.88,5.22c-5.22,3.48-9.17,8.1-11.85,13.86-2.68,5.76-4.02,12.12-4.02,19.08s1.34,13.15,4.02,18.98c2.68,5.82,6.63,10.48,11.85,13.96,5.22,3.49,11.51,5.22,18.88,5.22m-49.01,51.82v-140.19h15.06v16.07c3.75-5.49,8.6-9.81,14.56-12.95,5.96-3.15,13.09-4.72,21.39-4.72,9.77,0,18.31,2.31,25.61,6.93,7.3,4.62,12.96,10.85,16.97,18.68,4.02,7.83,6.02,16.57,6.02,26.21s-2.01,18.21-6.02,26.11c-4.02,7.9-9.68,14.16-16.97,18.78-7.3,4.62-15.83,6.93-25.61,6.93-8.3,0-15.43-1.64-21.39-4.92-5.96-3.28-10.82-7.6-14.56-12.96v56.04h-15.06Z"/>
  <path class="cls-1" d="m777.68,298.8c7.5,0,13.89-1.74,19.18-5.22,5.29-3.48,9.34-8.13,12.15-13.96,2.81-5.83,4.22-12.15,4.22-18.98s-1.4-13.32-4.22-19.08c-2.81-5.75-6.86-10.37-12.15-13.86-5.29-3.48-11.68-5.22-19.18-5.22s-13.66,1.74-18.88,5.22c-5.22,3.48-9.17,8.1-11.85,13.86-2.68,5.76-4.02,12.12-4.02,19.08s1.34,13.15,4.02,18.98c2.68,5.82,6.63,10.48,11.85,13.96,5.22,3.49,11.51,5.22,18.88,5.22m-49.01,51.82v-140.19h15.06v16.07c3.75-5.49,8.6-9.81,14.56-12.95,5.96-3.15,13.09-4.72,21.39-4.72,9.77,0,18.31,2.31,25.61,6.93,7.3,4.62,12.96,10.85,16.97,18.68,4.02,7.83,6.03,16.57,6.03,26.21s-2.01,18.21-6.03,26.11c-4.02,7.9-9.68,14.16-16.97,18.78-7.3,4.62-15.83,6.93-25.61,6.93-8.3,0-15.43-1.64-21.39-4.92-5.96-3.28-10.82-7.6-14.56-12.96v56.04h-15.06Z"/>
  <path class="cls-1" d="m886.94,298.8c7.5,0,13.82-1.74,18.98-5.22,5.15-3.48,9.07-8.13,11.75-13.96,2.68-5.82,4.02-12.15,4.02-18.98s-1.34-13.32-4.02-19.08c-2.68-5.76-6.6-10.37-11.75-13.86-5.16-3.48-11.48-5.22-18.98-5.22s-13.66,1.74-18.88,5.22c-5.22,3.48-9.17,8.1-11.85,13.86-2.68,5.76-4.02,12.12-4.02,19.08s1.34,13.15,4.02,18.98c2.68,5.82,6.63,10.48,11.85,13.96,5.22,3.48,11.51,5.22,18.88,5.22m0,13.66c-10.18,0-19.01-2.31-26.51-6.93-7.5-4.62-13.26-10.88-17.27-18.78-4.02-7.9-6.02-16.6-6.02-26.11s2.01-18.38,6.02-26.21c4.02-7.83,9.77-14.06,17.27-18.68,7.5-4.62,16.34-6.93,26.51-6.93s19.18,2.31,26.61,6.93c7.43,4.62,13.16,10.85,17.17,18.68,4.02,7.83,6.02,16.57,6.02,26.21s-2.01,18.21-6.02,26.11c-4.02,7.9-9.74,14.16-17.17,18.78-7.43,4.62-16.3,6.93-26.61,6.93"/>
</svg>