
<svg width="313px" height="75px" viewBox="0 0 313 75" version="1.1" xmlns="http://www.w3.org/2000/svg" xmlns:xlink="http://www.w3.org/1999/xlink">
    <g id="Page-1" stroke="none" stroke-width="1" fill="none" fill-rule="evenodd">
        <g id="Group" transform="translate(0.570000, 0.000000)" fill-rule="nonzero">
            <g transform="translate(0.430000, 48.620000)" fill="#000000">
                <path d="M0,1.41 L5.94,1.41 C8.13,1.41 11.41,2.12 11.41,6.27 C11.41,8.52 10.05,10.1 8.03,10.5 L8.03,10.55 C10.34,10.79 11.92,12.53 11.92,14.86 C11.92,19.64 8.08,20.34 5.93,20.34 L0,20.34 L0,1.41 Z M3.41,9.07 L4.8,9.07 C6.24,9.07 8.01,8.72 8.01,6.76 C8.01,4.56 6.28,4.4 4.73,4.4 L3.41,4.4 L3.41,9.07 Z M3.41,17.37 L5.02,17.37 C6.6,17.37 8.52,16.94 8.52,14.74 C8.52,12.27 6.72,11.89 5.02,11.89 L3.41,11.89 L3.41,17.37 Z" id="Shape"></path>
                <path d="M26.08,20.35 L22.99,20.35 L22.99,18.45 L22.94,18.45 C21.94,19.81 20.53,20.67 18.83,20.67 C15.86,20.67 14.57,18.34 14.57,15.19 L14.57,6.37 L17.83,6.37 L17.83,13.83 C17.83,15.54 17.85,17.85 19.95,17.85 C22.31,17.85 22.82,15 22.82,13.21 L22.82,6.37 L26.08,6.37 L26.08,20.35 Z" id="Path"></path>
                <path d="M36.88,9.31 C35.88,8.93 35.15,8.71 33.96,8.71 C33.08,8.71 32.04,9.06 32.04,10.26 C32.04,12.48 37.71,11.07 37.71,16.12 C37.71,19.38 35.11,20.68 32.45,20.68 C31.21,20.68 29.94,20.44 28.75,20.08 L28.94,17.1 C29.96,17.67 31.03,18.02 32.15,18.02 C32.98,18.02 34.29,17.67 34.29,16.31 C34.29,13.57 28.62,15.44 28.62,10.39 C28.62,7.38 30.98,6.05 33.54,6.05 C35.07,6.05 36.07,6.32 37.09,6.57 L36.88,9.31 Z" id="Path"></path>
                <path d="M40.31,0.36 L43.57,0.36 L43.57,3.83 L40.31,3.83 L40.31,0.36 Z M40.31,6.38 L43.57,6.38 L43.57,20.35 L40.31,20.35 L40.31,6.38 Z" id="Shape"></path>
                <path d="M46.99,6.38 L50.08,6.38 L50.08,8.28 L50.13,8.28 C51.15,6.68 52.54,6.06 54.24,6.06 C57.21,6.06 58.5,8.39 58.5,11.54 L58.5,20.36 L55.24,20.36 L55.24,12.9 C55.24,11.19 55.22,8.88 53.12,8.88 C50.76,8.88 50.25,11.73 50.25,13.52 L50.25,20.36 L46.99,20.36 L46.99,6.38 Z" id="Path"></path>
                <path d="M71.91,19.57 C70.72,20.3 69.36,20.68 67.6,20.68 C63.46,20.68 61.05,18.02 61.05,13.44 C61.05,9.4 62.97,6.06 66.87,6.06 C71.52,6.06 72.83,9.61 72.83,14.5 L64.17,14.5 C64.32,16.75 65.73,18.03 67.75,18.03 C69.33,18.03 70.69,17.38 71.91,16.62 L71.91,19.57 Z M69.72,12 C69.62,10.24 68.89,8.72 67.07,8.72 C65.25,8.72 64.32,10.13 64.17,12 L69.72,12 Z" id="Shape"></path>
                <path d="M82.83,9.31 C81.83,8.93 81.1,8.71 79.91,8.71 C79.03,8.71 77.99,9.06 77.99,10.26 C77.99,12.48 83.66,11.07 83.66,16.12 C83.66,19.38 81.06,20.68 78.4,20.68 C77.16,20.68 75.89,20.44 74.7,20.08 L74.89,17.1 C75.91,17.67 76.98,18.02 78.1,18.02 C78.93,18.02 80.24,17.67 80.24,16.31 C80.24,13.57 74.57,15.44 74.57,10.39 C74.57,7.38 76.93,6.05 79.49,6.05 C81.02,6.05 82.02,6.32 83.04,6.57 L82.83,9.31 Z" id="Path"></path>
                <path d="M93.63,9.31 C92.63,8.93 91.9,8.71 90.71,8.71 C89.83,8.71 88.79,9.06 88.79,10.26 C88.79,12.48 94.46,11.07 94.46,16.12 C94.46,19.38 91.86,20.68 89.2,20.68 C87.96,20.68 86.69,20.44 85.5,20.08 L85.69,17.1 C86.71,17.67 87.78,18.02 88.9,18.02 C89.73,18.02 91.04,17.67 91.04,16.31 C91.04,13.57 85.37,15.44 85.37,10.39 C85.37,7.38 87.73,6.05 90.29,6.05 C91.82,6.05 92.82,6.32 93.84,6.57 L93.63,9.31 Z" id="Path"></path>
                <path d="M113.16,4.89 C112.09,4.37 110.9,4.08 109.7,4.08 C108.53,4.08 107.02,4.65 107.02,6.71 C107.02,9.99 114.47,8.61 114.47,14.96 C114.47,19.11 111.53,20.68 108.09,20.68 C106.24,20.68 105.41,20.41 103.73,19.95 L104.05,16.53 C105.22,17.23 106.56,17.7 107.89,17.7 C109.18,17.7 110.91,16.97 110.91,15.26 C110.91,11.65 103.46,13.14 103.46,6.88 C103.46,2.65 106.4,1.1 109.4,1.1 C110.86,1.1 112.22,1.32 113.46,1.78 L113.16,4.89 Z" id="Path"></path>
                <path d="M127.32,19.57 C126.13,20.3 124.77,20.68 123.01,20.68 C118.87,20.68 116.46,18.02 116.46,13.44 C116.46,9.4 118.38,6.06 122.28,6.06 C126.93,6.06 128.24,9.61 128.24,14.5 L119.58,14.5 C119.73,16.75 121.14,18.03 123.16,18.03 C124.74,18.03 126.1,17.38 127.32,16.62 L127.32,19.57 L127.32,19.57 Z M125.13,12 C125.03,10.24 124.3,8.72 122.48,8.72 C120.66,8.72 119.73,10.13 119.58,12 L125.13,12 Z" id="Shape"></path>
                <path d="M130.86,6.38 L133.76,6.38 L133.76,9.55 L133.81,9.55 C133.96,8.25 135.29,6.05 137.24,6.05 C137.56,6.05 137.9,6.05 138.24,6.16 L138.24,9.82 C137.95,9.63 137.36,9.52 136.78,9.52 C134.13,9.52 134.13,13.21 134.13,15.22 L134.13,20.35 L130.87,20.35 L130.87,6.38 L130.86,6.38 Z" id="Path"></path>
                <polygon id="Path" points="138.87 6.38 142.37 6.38 145.48 16.56 145.53 16.56 148.55 6.38 151.81 6.38 147.19 20.35 143.52 20.35"></polygon>
                <path d="M153.85,0.36 L157.11,0.36 L157.11,3.83 L153.85,3.83 L153.85,0.36 Z M153.85,6.38 L157.11,6.38 L157.11,20.35 L153.85,20.35 L153.85,6.38 Z" id="Shape"></path>
                <path d="M168.67,9.39 C168.09,9.09 167.45,8.87 166.46,8.87 C164.44,8.87 163.15,10.66 163.15,13.29 C163.15,15.87 164.25,17.85 166.53,17.85 C167.45,17.85 168.48,17.47 169.04,17.2 L169.19,20.21 C168.24,20.54 167.27,20.67 165.93,20.67 C161.82,20.67 159.75,17.55 159.75,13.29 C159.75,9.25 161.89,6.05 165.81,6.05 C167.12,6.05 168.07,6.21 168.97,6.51 L168.67,9.39 Z" id="Path"></path>
                <path d="M181.39,19.57 C180.2,20.3 178.84,20.68 177.08,20.68 C172.94,20.68 170.53,18.02 170.53,13.44 C170.53,9.4 172.45,6.06 176.35,6.06 C181,6.06 182.31,9.61 182.31,14.5 L173.65,14.5 C173.8,16.75 175.21,18.03 177.23,18.03 C178.81,18.03 180.17,17.38 181.39,16.62 L181.39,19.57 Z M179.2,12 C179.1,10.24 178.37,8.72 176.55,8.72 C174.73,8.72 173.8,10.13 173.65,12 L179.2,12 Z" id="Shape"></path>
                <path d="M192.31,9.31 C191.31,8.93 190.58,8.71 189.39,8.71 C188.51,8.71 187.47,9.06 187.47,10.26 C187.47,12.48 193.14,11.07 193.14,16.12 C193.14,19.38 190.54,20.68 187.88,20.68 C186.64,20.68 185.37,20.44 184.18,20.08 L184.37,17.1 C185.39,17.67 186.46,18.02 187.58,18.02 C188.41,18.02 189.72,17.67 189.72,16.31 C189.72,13.57 184.05,15.44 184.05,10.39 C184.05,7.38 186.41,6.05 188.97,6.05 C190.5,6.05 191.5,6.32 192.52,6.57 L192.31,9.31 Z" id="Path"></path>
                <path d="M207.59,1.41 L211.43,1.41 L218.1,20.35 L214.33,20.35 L212.87,16.01 L205.98,16.01 L204.5,20.35 L200.97,20.35 L207.59,1.41 Z M209.46,5.21 L209.41,5.21 L206.95,13.02 L211.91,13.02 L209.46,5.21 Z" id="Shape"></path>
                <path d="M231.5,20.35 L228.41,20.35 L228.41,18.45 L228.36,18.45 C227.36,19.81 225.95,20.67 224.25,20.67 C221.28,20.67 219.99,18.34 219.99,15.19 L219.99,6.37 L223.25,6.37 L223.25,13.83 C223.25,15.54 223.27,17.85 225.37,17.85 C227.73,17.85 228.24,15 228.24,13.21 L228.24,6.37 L231.5,6.37 L231.5,20.35 L231.5,20.35 Z" id="Path"></path>
                <path d="M235.92,9.04 L233.51,9.04 L233.51,6.38 L235.92,6.38 L235.92,3.59 L239.18,2.42 L239.18,6.38 L242.08,6.38 L242.08,9.04 L239.18,9.04 L239.18,15.55 C239.18,16.74 239.47,17.86 240.71,17.86 C241.29,17.86 241.85,17.72 242.19,17.48 L242.29,20.36 C241.61,20.58 240.85,20.69 239.88,20.69 C237.33,20.69 235.91,18.93 235.91,16.16 L235.91,9.04 L235.92,9.04 Z" id="Path"></path>
                <path d="M244.31,0 L247.57,0 L247.57,8.28 L247.62,8.28 C248.45,6.92 249.86,6.06 251.56,6.06 C254.53,6.06 255.82,8.39 255.82,11.54 L255.82,20.36 L252.56,20.36 L252.56,12.9 C252.56,11.19 252.54,8.88 250.44,8.88 C248.08,8.88 247.57,11.73 247.57,13.52 L247.57,20.36 L244.31,20.36 L244.31,0 Z" id="Path"></path>
                <path d="M264.92,6.05 C268.64,6.05 271.49,8.84 271.49,13.46 C271.49,17.48 269.08,20.68 264.92,20.68 C260.78,20.68 258.37,17.48 258.37,13.46 C258.37,8.85 261.22,6.05 264.92,6.05 Z M264.92,17.86 C267.43,17.86 268.08,15.36 268.08,13.03 C268.08,10.89 267.06,8.88 264.92,8.88 C262.8,8.88 261.78,10.94 261.78,13.03 C261.78,15.33 262.44,17.86 264.92,17.86 Z" id="Shape"></path>
                <path d="M274.11,6.38 L277.01,6.38 L277.01,9.55 L277.06,9.55 C277.21,8.25 278.54,6.05 280.49,6.05 C280.81,6.05 281.15,6.05 281.49,6.16 L281.49,9.82 C281.2,9.63 280.61,9.52 280.03,9.52 C277.38,9.52 277.38,13.21 277.38,15.22 L277.38,20.35 L274.12,20.35 L274.12,6.38 L274.11,6.38 Z" id="Path"></path>
                <path d="M283.57,0.36 L286.83,0.36 L286.83,3.83 L283.57,3.83 L283.57,0.36 Z M283.57,6.38 L286.83,6.38 L286.83,20.35 L283.57,20.35 L283.57,6.38 Z" id="Shape"></path>
                <path d="M291.33,9.04 L288.92,9.04 L288.92,6.38 L291.33,6.38 L291.33,3.59 L294.59,2.42 L294.59,6.38 L297.49,6.38 L297.49,9.04 L294.59,9.04 L294.59,15.55 C294.59,16.74 294.88,17.86 296.12,17.86 C296.7,17.86 297.26,17.72 297.6,17.48 L297.7,20.36 C297.02,20.58 296.26,20.69 295.29,20.69 C292.74,20.69 291.32,18.93 291.32,16.16 L291.32,9.04 L291.33,9.04 Z" id="Path"></path>
                <path d="M304.93,16.58 L304.98,16.58 L308,6.38 L311.31,6.38 L306.61,20.25 C305.56,23.34 304.81,26.38 301.4,26.38 C300.62,26.38 299.84,26.24 299.09,26 L299.31,23.31 C299.72,23.47 300.19,23.55 300.99,23.55 C302.3,23.55 303.11,22.55 303.11,21.05 L298.32,6.37 L301.92,6.37 L304.93,16.58 Z" id="Path"></path>
            </g>
            <path d="M85.61,38.44 L85.61,0 L-5.68434189e-14,0 L-5.68434189e-14,38.44 L85.61,38.44 L85.61,38.44 Z M34.42,3.71 L28.51,34.65 L19.24,34.65 L13.41,13.24 L13.33,13.24 L9.45,34.65 L2.42,34.65 L8.38,3.71 L17.69,3.71 L23.41,25.17 L23.49,25.17 L27.41,3.71 L34.42,3.71 L34.42,3.71 Z M60.95,3.71 L55.16,34.65 L47.69,34.65 L50.17,21.4 L41.34,21.4 L38.86,34.65 L31.39,34.65 L37.18,3.71 L44.65,3.71 L42.46,15.55 L51.29,15.55 L53.49,3.71 L60.95,3.71 L60.95,3.71 Z M82.41,4.55 L80.61,10.71 C79.17,9.96 77.21,9.29 74.46,9.29 C71.51,9.29 69.11,9.77 69.11,12.26 C69.11,16.65 79.94,15.01 79.94,24.41 C79.94,32.96 72.79,35.18 66.31,35.18 C63.43,35.18 60.12,34.42 57.68,33.58 L59.44,27.28 C60.91,28.35 63.88,29.06 66.31,29.06 C68.63,29.06 72.26,28.57 72.26,25.38 C72.26,20.41 61.43,22.28 61.43,13.55 C61.43,5.57 67.74,3.17 73.86,3.17 C77.29,3.18 80.53,3.58 82.41,4.55 L82.41,4.55 Z" id="Shape" fill="#005CB8"></path>
        </g>
    </g>
</svg>